<?xml version="1.0" encoding="UTF-8"?>
<svg id="Calque_2" data-name="Calque 2" xmlns="http://www.w3.org/2000/svg" viewBox="0 0 215.74 45.05">
  <defs>
    <style>
      .cls-1 {
        fill: #917873;
        stroke-width: 0px;
      }
    </style>
  </defs>
  <g id="Calque_1-2" data-name="Calque 1">
    <g>
      <path class="cls-1" d="M103.97,13.03c.34.14.61-.47,1.69-.89.1-.04,1.65-.63,3.16-.13,1.8.59,3.2,2.61,3.06,4.6-.18,2.62-2.98,4.26-5.11,4.47-3.29.33-6.33-2.59-7.28-5.36-1.72-5.06,2.89-11.54,8.04-14.17,7.01-3.57,15.97-.5,21.06,4.85,7.48,7.87,4.78,18.74,4.47,19.91-2.73,10.27-11.92,14.36-13.28,14.94-10.52,4.47-20.57-.87-23.49-2.43-2.76-1.47-4.82-3.22-6.77-4.85-4.97-4.15-5.92-6.38-11.16-11.42-3.92-3.76-5.88-5.64-8.88-7.25-2.53-1.36-9.38-5.07-15.87-2.39-1.15.47-5.23,2.16-6.21,6.04-1,3.94,1.98,7.46,2.72,8.34,2.82,3.34,6.6,4.08,7.74,4.26,4.36.83,8.72,1.66,13.08,2.49,1.05.23,2.48.66,4.03,1.51,1.43.78,2.5,1.67,3.23,2.38l-6.89-1.45c-4.79-.57-9.59-1.13-14.38-1.7-3.18-.38-6.65-1.93-9.36-5.19-3-3.61-4.75-9.7-2.13-14.47,1.57-2.85,4.12-4.15,5.22-4.71,5.11-2.59,10.36-1.2,13.76-.32,3.99,1.03,6.76,2.75,8.51,3.83,3.14,1.95,5.07,3.81,8.49,7.16,5.39,5.27,5.95,6.92,10.14,10.08,1.28.97,3.16,2.41,5.62,3.57,2.16,1.03,12.51,5.93,21.96.64,1.4-.78,8.98-5.26,9.83-13.97.1-.98.65-7.74-4.34-12.96-3.93-4.1-9.87-5.78-14.65-4.57-1.14.29-3.49.92-5.01,3.03-1.74,2.4-1.76,5.82-1.02,6.13Z"/>
      <path class="cls-1" d="M160.78,32.02c-.27-.15-.61.47-1.69.89-.1.04-1.65.63-3.16.13-1.8-.59-3.2-2.61-3.06-4.6.18-2.62,2.98-4.26,5.11-4.47,3.29-.33,6.33,2.59,7.28,5.36,1.72,5.06-2.89,11.54-8.04,14.17-7.01,3.57-15.97.5-21.06-4.85-7.48-7.87-4.78-18.74-4.47-19.91,2.73-10.27,11.92-14.36,13.28-14.94,10.52-4.47,20.57.87,23.49,2.43,1.61.86,3.32,2.2,6.77,4.85,7.94,6.12,8.41,7.95,13.96,11.86,4.57,3.22,8.23,5.8,13.6,6.52,5.66.77,10.38-.91,12.98-2.09-.46.65-1.17,1.52-2.21,2.34-3.69,2.89-8.26,2.51-10.77,2.3-4.26-.36-7.31-1.82-9.74-3.02-3.28-1.61-5.3-3.22-9.28-6.38-5.1-4.06-5.95-5.47-10.57-8.73-2.32-1.63-3.77-2.7-5.62-3.57-2.16-1.03-12.51-5.93-21.96-.64-1.4.78-8.98,5.26-9.83,13.97-.1.98-.65,7.74,4.34,12.96,3.54,3.7,9.74,6.56,14.65,4.57,2.54-1.04,4.07-3.11,4.31-3.44,1.7-2.36,2.29-5.42,1.72-5.72Z"/>
      <path class="cls-1" d="M8.03,23.73c-3.83-4.01-4.29-10.51-1.28-14.68,2.94-4.07,8.16-4.33,10.72-4.47,6.16-.32,10.71,2.56,13.32,4.21,2.5,1.58,7.42,4.8,10.17,11.11.75,1.72,4.56,10.43.13,16.09-.32.41-3.45,4.27-7.93,3.75-2.64-.31-6.43-2.22-6.62-5.66-.13-2.39,1.52-4.78,4.09-6-.45-.25-2.94-1.55-5.23-.51-2.86,1.3-3.43,5.35-2.81,7.91,1.1,4.5,6.46,6.7,10.21,7.02,6.41.56,10.75-4.11,11.08-4.48,6.02-6.68,2.38-17.02,1.81-18.63-2.81-7.98-9.27-11.96-12.85-14.17-2.61-1.61-6.61-4.08-12.34-4.6C17.7.37,6.69-.63,2.03,7.18c-3.33,5.58-2.78,14.59,3.29,18.93,6.03,4.31,13.63,1.13,14.07.94-.44.09-6.94,1.31-11.36-3.32Z"/>
    </g>
  </g>
</svg>