<?xml version="1.0" encoding="UTF-8" standalone="no"?>
<!DOCTYPE svg PUBLIC "-//W3C//DTD SVG 1.1//EN" "http://www.w3.org/Graphics/SVG/1.1/DTD/svg11.dtd">
<svg width="100%" height="100%" viewBox="0 0 842 527" version="1.1" xmlns="http://www.w3.org/2000/svg" xmlns:xlink="http://www.w3.org/1999/xlink" xml:space="preserve" xmlns:serif="http://www.serif.com/" style="fill-rule:evenodd;clip-rule:evenodd;stroke-linejoin:round;stroke-miterlimit:2;">
    <g transform="matrix(1,0,0,1,-646.946,-1238.06)">
        <g transform="matrix(-1,0,0,1,1872.07,11.51)">
            <path d="M879.785,1257.1L384.033,1257.1L384.033,1752.86L879.785,1752.86L879.785,1257.1ZM826.757,1313.01L826.757,1702.7L437.062,1702.7L437.062,1313.01L826.757,1313.01Z"/>
        </g>
        <g transform="matrix(0.354546,0,0,0.354546,1097.87,1385.81)">
            <path d="M538.264,774.776C284.864,861.72 327.992,704.88 113.208,590.664C-101,476.744 11.544,251.352 260.92,107.456C562.616,-66.624 857.504,-36.44 790.36,251.352C723.216,539.128 750.792,695.504 538.264,774.776Z" style="fill-rule:nonzero;stroke:black;stroke-width:2.17px;"/>
        </g>
        <g transform="matrix(0.354546,0,0,0.354546,1097.87,1385.81)">
            <circle cx="400" cy="376" r="152" style="fill:rgb(179,151,43);"/>
        </g>
        <g transform="matrix(-1,0,0,1,1872.07,11.51)">
            <path d="M879.785,1257.1L384.033,1257.1L384.033,1752.86L879.785,1752.86L879.785,1257.1ZM826.757,1313.01L826.757,1702.7L437.062,1702.7L437.062,1313.01L826.757,1313.01Z"/>
        </g>
        <g transform="matrix(0.676727,0,0,1,116.695,5.12861)">
            <rect x="786.41" y="1483.74" width="251.291" height="59.516" style="fill:rgb(179,151,43);"/>
        </g>
        <g transform="matrix(0.85652,0,0,1,133.089,5)">
            <rect x="786.41" y="1483.74" width="251.291" height="59.516"/>
        </g>
        <g transform="matrix(0.777179,0,0,0.777179,162.866,-634.012)">
            <rect x="967.897" y="2826.06" width="78.253" height="78.253" style="stroke:black;stroke-width:0.99px;stroke-linecap:round;stroke-miterlimit:1.5;"/>
        </g>
        <g transform="matrix(0.456357,0,0,0.456357,498.677,350.634)">
            <rect x="967.897" y="2826.06" width="78.253" height="78.253" style="stroke:black;stroke-width:1.68px;stroke-linecap:round;stroke-miterlimit:1.5;"/>
        </g>
        <g transform="matrix(0.456357,0,0,0.456357,502.261,147.247)">
            <rect x="967.897" y="2826.06" width="78.253" height="78.253" style="stroke:black;stroke-width:1.68px;stroke-linecap:round;stroke-miterlimit:1.5;"/>
        </g>
        <g transform="matrix(1.64702,0,0,1.37468,119.271,-272.385)">
            <path d="M383.157,1258.33C380.109,1259.8 368.918,1262.13 365.253,1262.13C335.339,1262.13 320.382,1252.51 320.382,1233.27L320.382,1129.98C320.382,1109.17 333.885,1098.76 360.889,1098.76C387.521,1098.76 400.837,1109.1 400.837,1129.76L400.837,1233.04C400.837,1244.23 394.943,1252.66 383.157,1258.33Z" style="fill-rule:nonzero;"/>
        </g>
        <g transform="matrix(0.210836,0,0,0.210836,629.12,1266.52)">
            <path d="M488.008,246.852L464.218,223.062C454.608,213.451 449.315,200.675 449.315,187.084L449.315,64.409L443.343,64.314L443.342,47.666L357.034,47.584L356.824,64.355L350.685,64.409L350.685,187.084C350.685,200.675 345.392,213.451 335.782,223.062L311.992,246.852C288.485,270.359 275.538,301.614 275.538,334.86L275.538,763.209C275.538,783.496 292.042,800 312.329,800L487.671,800C507.958,800 524.462,783.496 524.462,763.209L524.462,334.86C524.462,301.614 511.515,270.359 488.008,246.852Z" style="fill:white;fill-rule:nonzero;"/>
        </g>
        <g transform="matrix(1.43297,0,0,1,342.838,181.297)">
            <path d="M407.663,1260.9L372.415,1260.9C368.61,1256.35 366.708,1243.45 366.708,1222.19L366.708,1221.96L366.932,1212.34C367.156,1198.99 367.267,1192.16 367.267,1191.86C367.267,1186.42 363.612,1183.69 356.301,1183.69L356.301,1260.68L321.054,1260.68L321.054,1100.22L364.582,1100.22C374.503,1100.22 383.12,1102.49 390.43,1107.04C397.816,1111.59 401.508,1118.79 401.508,1128.64L401.508,1147.89C401.508,1160.34 394.235,1168.77 379.688,1173.17C394.309,1176.61 401.62,1185.45 401.62,1199.69L401.061,1217.26C401.061,1242.92 403.261,1257.47 407.663,1260.9ZM367.267,1155.72L367.267,1129.31C367.267,1123.72 363.612,1120.92 356.301,1120.92L356.301,1164.22C363.612,1164.22 367.267,1161.39 367.267,1155.72Z" style="fill-rule:nonzero;"/>
        </g>
        <g transform="matrix(0.790771,-0.364143,0.407312,0.884515,-312.597,369.414)">
            <path d="M577.738,1474.46C577.794,1491.51 597.233,1507.89 552.849,1484.42C551.662,1483.79 549.368,1479.93 549.476,1478.7C551.757,1452.83 553.546,1437.32 555.546,1417.35C558.592,1411.45 565.875,1413.84 578.084,1425.84"/>
        </g>
        <g transform="matrix(1,0,0,0.831547,9.49119,259.466)">
            <path d="M661.609,1733.4L661.609,1716.99L684.167,1716.99C690.743,1716.99 694.031,1713.58 694.031,1706.74C690.385,1709.54 684.656,1710.94 676.843,1710.94C671.374,1710.94 666.622,1709.51 662.585,1706.64C658.614,1703.71 656.628,1699.9 656.628,1695.22L656.628,1613.77C656.628,1601.4 664.017,1595.22 678.796,1595.22C682.702,1595.22 697.839,1596 697.839,1596L721.765,1596L721.765,1707.81C721.765,1715.17 720.3,1721.26 717.37,1726.08C714.506,1730.96 705.521,1733.4 690.417,1733.4L661.609,1733.4ZM694.031,1689.16L694.031,1617.97C694.031,1614.52 692.435,1612.79 689.245,1612.79C685.99,1612.79 684.363,1614.52 684.363,1617.97L684.363,1688.97C684.363,1692.42 685.99,1694.14 689.245,1694.14C692.435,1694.14 694.031,1692.48 694.031,1689.16Z" style="fill-rule:nonzero;"/>
        </g>
        <g transform="matrix(1,0,0,0.868568,-34.3243,224.903)">
            <path d="M846.177,1634.29L808.774,1634.29L808.774,1660.76C808.774,1664.6 810.402,1666.52 813.657,1666.52C816.847,1666.52 818.442,1664.6 818.442,1660.76L818.442,1637.91L846.177,1637.91L846.177,1660.95C846.177,1676.25 835.272,1683.9 813.462,1683.9C791.847,1683.9 781.04,1675.93 781.04,1659.98L781.04,1592.11C781.04,1576.15 791.847,1568.18 813.462,1568.18C835.272,1568.18 846.177,1575.83 846.177,1591.13L846.177,1634.29ZM818.442,1617.3L818.442,1591.33C818.442,1587.61 816.847,1585.76 813.657,1585.76C810.402,1585.76 808.774,1587.61 808.774,1591.33L808.774,1617.3L818.442,1617.3Z" style="fill-rule:nonzero;"/>
        </g>
        <g transform="matrix(1,0,0,0.82622,-50.8384,251.449)">
            <path d="M944.337,1730.9L916.505,1730.9L916.505,1639.89C916.505,1636.44 914.91,1634.71 911.72,1634.71C908.53,1634.71 906.935,1636.37 906.935,1639.69L906.935,1730.9L879.103,1730.9L879.103,1617.53L906.935,1617.53L906.935,1621.33C910.646,1618.27 916.375,1616.74 924.122,1616.74C929.135,1616.74 933.758,1618.11 937.989,1620.85C942.221,1623.58 944.337,1627.58 944.337,1632.86L944.337,1730.9Z" style="fill-rule:nonzero;"/>
        </g>
    </g>
</svg>
